<svg version="1.1" viewBox="0.0 0.0 256.0 256.0" fill="none" stroke="none" stroke-linecap="square" stroke-miterlimit="10" xmlns:xlink="http://www.w3.org/1999/xlink" xmlns="http://www.w3.org/2000/svg"><clipPath id="p.0"><path d="m0 0l256.0 0l0 256.0l-256.0 0l0 -256.0z" clip-rule="nonzero"/></clipPath><g clip-path="url(#p.0)"><path fill="#000000" fill-opacity="0.0" d="m0 0l256.0 0l0 256.0l-256.0 0z" fill-rule="evenodd"/><defs><linearGradient id="p.1" gradientUnits="userSpaceOnUse" gradientTransform="matrix(19.027313840186736 0.0 0.0 19.027313840186736 0.0 0.0)" spreadMethod="pad" x1="6.727244603839422" y1="-6.7271707831418786" x2="-6.727171860816296" y2="6.727098040118753"><stop offset="0.0" stop-color="#00ffff"/><stop offset="0.5" stop-color="#000000"/><stop offset="1.0" stop-color="#000000"/></linearGradient></defs><path fill="url(#p.1)" d="m0 0l256.0 0l0 256.0l-256.0 0z" fill-rule="evenodd"/><path fill="#00ffff" d="m37.986835 30.692995l0 173.34406l17.612926 0l0 -137.83627l0 0l68.07376 115.79041l8.665405 0l68.11406 -116.63395l0 138.67981l17.572617 0l0 -173.34406l-15.114059 0l-74.54161 128.44426l0 0l-75.26903 -128.44426z" fill-rule="evenodd"/><path fill="#00ffff" d="m32.279522 212.95804l0 12.277573l0.5966339 0l0 -5.594986l6.66576 0l0 -0.52523804l-6.66576 0l0 -5.6121216l7.4565163 0l0 -0.54522705z" fill-rule="evenodd"/><path fill="#00ffff" d="m56.50344 213.50327c1.3797836 0 2.4350739 0.30734253 3.165882 0.9220276c0.73080444 0.61279297 1.0962105 1.4805756 1.0962105 2.6033783c0 1.1209106 -0.36540604 1.9915619 -1.0962105 2.6119537c-0.73080826 0.62039185 -1.7860985 0.930603 -3.165882 0.930603l-3.7025642 0l0 -7.0679626zm-4.299202 -0.54522705l0 12.277573l0.5966377 0l0 -4.1220245l3.6654549 0c0.47760773 0 0.92359924 -0.036010742 1.3379784 -0.10803223l0 0l3.0297356 4.230057l0.70225906 0l-3.1417084 -4.362976l0 0c0.24462509 -0.06866455 0.47636414 -0.15200806 0.69521713 -0.25003052c0.73080826 -0.32733154 1.2884293 -0.79452515 1.672863 -1.4015961c0.3863411 -0.6089783 0.57950974 -1.3397522 0.57950974 -2.192337c0 -1.2864532 -0.43011093 -2.2865143 -1.2903328 -3.0001678c-0.8583145 -0.7136383 -2.0534897 -1.0704651 -3.5855217 -1.0704651z" fill-rule="evenodd"/><path fill="#00ffff" d="m77.52343 213.64917l3.4378204 7.481552l-6.875641 0l3.4378204 -7.481552zm-0.28833008 -0.6911316l-5.683731 12.277573l0.6480179 0l1.6527405 -3.5967712l7.3426056 0l1.6527405 3.5967712l0.6480179 0l-5.6837387 -12.277573z" fill-rule="evenodd"/><path fill="#00ffff" d="m94.75473 212.95804l0 12.277573l0.5795059 0l0 -11.036301l5.4039764 9.334976l0.31401825 0l5.3844986 -9.363205l0.01662445 11.064529l0.5795059 0l-0.01712799 -12.277573l-0.49101257 0l-5.621353 9.822281l-5.6576233 -9.822281z" fill-rule="evenodd"/><path fill="#00ffff" d="m120.39728 212.95804l0 12.277573l8.29866 0l0 -0.54237366l-7.7020264 0l0 -5.4208527l6.665764 0l0 -0.54237366l-6.665764 0l0 -5.2267456l7.4565125 0l0 -0.54522705z" fill-rule="evenodd"/><path fill="#00ffff" d="m139.49832 212.95804l4.193573 12.277573l0.61376953 0l3.9810486 -11.446045l3.997879 11.446045l0.5966339 0l4.1907196 -12.277573l-0.5937805 0l-3.9053802 11.440628l-3.9878998 -11.440628l-0.57951355 0l-3.9971008 11.419785l-3.8790588 -11.419785z" fill-rule="evenodd"/><path fill="#00ffff" d="m174.03333 213.4319c0.8183594 0 1.578659 0.14082336 2.2809143 0.4224701c0.7022705 0.27975464 1.3131714 0.67749023 1.8327332 1.193222c0.51956177 0.51382446 0.92207336 1.1132965 1.20755 1.7983856c0.28736877 0.683197 0.4310608 1.43396 0.4310608 2.2522736c0 0.8183136 -0.14369202 1.5700226 -0.4310608 2.255127c-0.28547668 0.683197 -0.6879883 1.2817078 -1.20755 1.7955322c-0.51956177 0.51382446 -1.1304626 0.9115753 -1.8327332 1.193222c-0.70225525 0.27975464 -1.4625549 0.4196167 -2.2809143 0.4196167c-0.80693054 0 -1.5615234 -0.13986206 -2.2637787 -0.4196167c-0.70036316 -0.28164673 -1.311264 -0.6793976 -1.8327332 -1.193222c-0.51956177 -0.51382446 -0.9230194 -1.1123352 -1.2104034 -1.7955322c-0.28546143 -0.68510437 -0.4282074 -1.4368134 -0.4282074 -2.255127c0 -0.8183136 0.14274597 -1.5690765 0.4282074 -2.2522736c0.28738403 -0.6850891 0.6908417 -1.2845612 1.2104034 -1.7983856c0.5214691 -0.5157318 1.13237 -0.9134674 1.8327332 -1.193222c0.70225525 -0.28164673 1.4568481 -0.4224701 2.2637787 -0.4224701zm0 -0.54237366c-0.900177 0 -1.736618 0.15510559 -2.5092926 0.4653015c-0.7707672 0.30828857 -1.4425812 0.74313354 -2.0154266 1.3045502c-0.57284546 0.56140137 -1.0172272 1.2198486 -1.3331451 1.9753723c-0.31593323 0.7536011 -0.4738922 1.5747833 -0.4738922 2.463501c0 0.8887329 0.15795898 1.7098999 0.4738922 2.4635162c0.31591797 0.7536011 0.7602997 1.4111176 1.3331451 1.9725189c0.57284546 0.56140137 1.2446594 0.9971924 2.0154266 1.3074036c0.77267456 0.31019592 1.6091156 0.46528625 2.5092926 0.46528625c0.91160583 0 1.7527924 -0.15509033 2.5235748 -0.46528625c0.77267456 -0.31021118 1.4425812 -0.7460022 2.0097198 -1.3074036c0.5671387 -0.56140137 1.0115204 -1.2189178 1.3331451 -1.9725189c0.32164 -0.75361633 0.4824524 -1.5747833 0.4824524 -2.4635162c0 -0.88871765 -0.16081238 -1.7098999 -0.4824524 -2.463501c-0.32162476 -0.7555237 -0.76600647 -1.413971 -1.3331451 -1.9753723c-0.5671387 -0.5614166 -1.2370453 -0.9962616 -2.0097198 -1.3045502c-0.7707825 -0.31019592 -1.611969 -0.4653015 -2.5235748 -0.4653015z" fill-rule="evenodd"/><path fill="#00ffff" d="m196.80078 213.50327c1.379776 0 2.4350739 0.30734253 3.1658783 0.9220276c0.73080444 0.61279297 1.0962067 1.4805756 1.0962067 2.6033783c0 1.1209106 -0.36540222 1.9915619 -1.0962067 2.6119537c-0.73080444 0.62039185 -1.7861023 0.930603 -3.1658783 0.930603l-3.7025757 0l0 -7.0679626zm-4.2992096 -0.54522705l0 12.277573l0.5966339 0l0 -4.1220245l3.6654663 0c0.4776001 0 0.92359924 -0.036010742 1.3379669 -0.10803223l0 0l3.0297394 4.230057l0.70225525 0l-3.1417084 -4.362976l0 0c0.2446289 -0.06866455 0.47636414 -0.15200806 0.69522095 -0.25003052c0.73080444 -0.32733154 1.2884369 -0.79452515 1.6728668 -1.4015961c0.38633728 -0.6089783 0.57951355 -1.3397522 0.57951355 -2.192337c0 -1.2864532 -0.43011475 -2.2865143 -1.2903442 -3.0001678c-0.8583069 -0.7136383 -2.053482 -1.0704651 -3.5855103 -1.0704651z" fill-rule="evenodd"/><path fill="#00ffff" d="m213.96974 212.95804l0 12.277573l0.59664917 0l0 -3.2453156l2.9248047 -3.0105438l5.493744 6.2558594l0.73651123 0l-5.8275604 -6.6601715l5.4421844 -5.617401l-0.7365265 0l-8.033157 8.258209l0 -8.258209z" fill-rule="evenodd"/></g></svg>